<svg width="24" height="23" viewBox="0 0 24 23" fill="none" xmlns="http://www.w3.org/2000/svg">
<path d="M19.6364 9.63647C19.9879 9.285 19.9879 8.71515 19.6364 8.36368C19.2849 8.01221 18.7151 8.01221 18.3636 8.36368L19.6364 9.63647ZM12 16.0001L11.3636 16.6365C11.7151 16.9879 12.2849 16.9879 12.6364 16.6365L12 16.0001ZM5.6364 8.36368C5.28492 8.01221 4.71508 8.01221 4.3636 8.36368C4.01213 8.71515 4.01213 9.285 4.3636 9.63647L5.6364 8.36368ZM18.3636 8.36368L11.3636 15.3637L12.6364 16.6365L19.6364 9.63647L18.3636 8.36368ZM12.6364 15.3637L5.6364 8.36368L4.3636 9.63647L11.3636 16.6365L12.6364 15.3637Z" fill="#252525"/>
</svg>
